<?xml version="1.0" encoding="UTF-8" standalone="no"?>
<!DOCTYPE svg PUBLIC "-//W3C//DTD SVG 1.1//EN"
 "http://www.w3.org/Graphics/SVG/1.1/DTD/svg11.dtd">
<!-- Generated by graphviz version 2.42.4 (0)
 -->
<!-- Title: G Pages: 1 -->
<svg width="1228pt" height="276pt"
 viewBox="0.00 0.00 1228.40 276.33" xmlns="http://www.w3.org/2000/svg" xmlns:xlink="http://www.w3.org/1999/xlink">
<g id="graph0" class="graph" transform="scale(1 1) rotate(0) translate(25.2 251.13)">
<title>G</title>
<polygon fill="white" stroke="transparent" points="-25.2,25.2 -25.2,-251.13 1203.2,-251.13 1203.2,25.2 -25.2,25.2"/>
<g id="clust1" class="cluster">
<title>cluster_docker</title>
<path fill="white" stroke="#94a3b8" d="M540,-35.93C540,-35.93 1158,-35.93 1158,-35.93 1164,-35.93 1170,-41.93 1170,-47.93 1170,-47.93 1170,-150.93 1170,-150.93 1170,-156.93 1164,-162.93 1158,-162.93 1158,-162.93 540,-162.93 540,-162.93 534,-162.93 528,-156.93 528,-150.93 528,-150.93 528,-47.93 528,-47.93 528,-41.93 534,-35.93 540,-35.93"/>
<text text-anchor="middle" x="849" y="-147.73" font-family="DejaVu Sans" font-size="14.00">Sieć Docker: repmgrnet 172.30.0.0/24</text>
</g>
<!-- users -->
<g id="node1" class="node">
<title>users</title>
<path fill="#e0f2fe" stroke="#334155" stroke-width="1.4" d="M242.5,-209.93C242.5,-209.93 21.5,-209.93 21.5,-209.93 15.5,-209.93 9.5,-203.93 9.5,-197.93 9.5,-197.93 9.5,-179.93 9.5,-179.93 9.5,-173.93 15.5,-167.93 21.5,-167.93 21.5,-167.93 242.5,-167.93 242.5,-167.93 248.5,-167.93 254.5,-173.93 254.5,-179.93 254.5,-179.93 254.5,-197.93 254.5,-197.93 254.5,-203.93 248.5,-209.93 242.5,-209.93"/>
<text text-anchor="middle" x="132" y="-192.73" font-family="DejaVu Sans" font-size="14.00">Administrator / aplikacja testowa</text>
<text text-anchor="middle" x="132" y="-177.73" font-family="DejaVu Sans" font-size="14.00">psql / pgAdmin / docker exec</text>
</g>
<!-- wezel1 -->
<g id="node3" class="node">
<title>wezel1</title>
<path fill="#dcfce7" stroke="#334155" stroke-width="1.4" d="M705,-131.43C705,-131.43 548,-131.43 548,-131.43 542,-131.43 536,-125.43 536,-119.43 536,-119.43 536,-56.43 536,-56.43 536,-50.43 542,-44.43 548,-44.43 548,-44.43 705,-44.43 705,-44.43 711,-44.43 717,-50.43 717,-56.43 717,-56.43 717,-119.43 717,-119.43 717,-125.43 711,-131.43 705,-131.43"/>
<text text-anchor="middle" x="626.5" y="-114.23" font-family="DejaVu Sans" font-size="14.00">wezel1</text>
<text text-anchor="middle" x="626.5" y="-99.23" font-family="DejaVu Sans" font-size="14.00">PostgreSQL 18 primary</text>
<text text-anchor="middle" x="626.5" y="-84.23" font-family="DejaVu Sans" font-size="14.00">IP: 172.30.0.11</text>
<text text-anchor="middle" x="626.5" y="-69.23" font-family="DejaVu Sans" font-size="14.00">DB: clothing_shop</text>
<text text-anchor="middle" x="626.5" y="-54.23" font-family="DejaVu Sans" font-size="14.00">schematy: shop, admin</text>
</g>
<!-- users&#45;&gt;wezel1 -->
<g id="edge1" class="edge">
<title>users&#45;&gt;wezel1</title>
<path fill="none" stroke="#475569" stroke-width="1.3" d="M250.79,-167.9C323.64,-154.5 418.97,-136.27 503,-117.93 511.19,-116.14 519.67,-114.22 528.17,-112.24"/>
<polygon fill="#475569" stroke="#475569" stroke-width="1.3" points="528.82,-114.96 535.97,-110.41 527.54,-109.51 528.82,-114.96"/>
<text text-anchor="middle" x="400" y="-176.73" font-family="DejaVu Sans" font-size="14.00">zapis/odczyt</text>
<text text-anchor="middle" x="400" y="-161.73" font-family="DejaVu Sans" font-size="14.00">port 5432</text>
</g>
<!-- wezel2 -->
<g id="node4" class="node">
<title>wezel2</title>
<path fill="#fef9c3" stroke="#334155" stroke-width="1.4" d="M1150,-131.43C1150,-131.43 942,-131.43 942,-131.43 936,-131.43 930,-125.43 930,-119.43 930,-119.43 930,-56.43 930,-56.43 930,-50.43 936,-44.43 942,-44.43 942,-44.43 1150,-44.43 1150,-44.43 1156,-44.43 1162,-50.43 1162,-56.43 1162,-56.43 1162,-119.43 1162,-119.43 1162,-125.43 1156,-131.43 1150,-131.43"/>
<text text-anchor="middle" x="1046" y="-114.23" font-family="DejaVu Sans" font-size="14.00">wezel2</text>
<text text-anchor="middle" x="1046" y="-99.23" font-family="DejaVu Sans" font-size="14.00">PostgreSQL 18 standby/replica</text>
<text text-anchor="middle" x="1046" y="-84.23" font-family="DejaVu Sans" font-size="14.00">IP: 172.30.0.12</text>
<text text-anchor="middle" x="1046" y="-69.23" font-family="DejaVu Sans" font-size="14.00">hot_standby = on</text>
<text text-anchor="middle" x="1046" y="-54.23" font-family="DejaVu Sans" font-size="14.00">repmgrd: automatic failover</text>
</g>
<!-- users&#45;&gt;wezel2 -->
<g id="edge2" class="edge">
<title>users&#45;&gt;wezel2</title>
<path fill="none" stroke="#475569" stroke-width="1.3" stroke-dasharray="5,2" d="M254.76,-197.18C269,-197.9 283.31,-198.51 297,-198.93 388.51,-201.72 411.8,-206.97 503,-198.93 680.17,-183.32 723.55,-168.27 897,-128.93 905.08,-127.1 913.38,-125.11 921.72,-123.02"/>
<polygon fill="#475569" stroke="#475569" stroke-width="1.3" points="922.66,-125.67 929.73,-121 921.29,-120.24 922.66,-125.67"/>
<text text-anchor="middle" x="626.5" y="-214.73" font-family="DejaVu Sans" font-size="14.00">odczyt z repliki</text>
<text text-anchor="middle" x="626.5" y="-199.73" font-family="DejaVu Sans" font-size="14.00">port 5433</text>
</g>
<!-- backup -->
<g id="node2" class="node">
<title>backup</title>
<path fill="#f1f5f9" stroke="#334155" stroke-width="1.4" d="M252,-94.43C252,-94.43 12,-94.43 12,-94.43 6,-94.43 0,-88.43 0,-82.43 0,-82.43 0,-49.43 0,-49.43 0,-43.43 6,-37.43 12,-37.43 12,-37.43 252,-37.43 252,-37.43 258,-37.43 264,-43.43 264,-49.43 264,-49.43 264,-82.43 264,-82.43 264,-88.43 258,-94.43 252,-94.43"/>
<text text-anchor="middle" x="132" y="-77.23" font-family="DejaVu Sans" font-size="14.00">Backup na hoście lokalnym</text>
<text text-anchor="middle" x="132" y="-62.23" font-family="DejaVu Sans" font-size="14.00">pg_dump / pg_restore</text>
<text text-anchor="middle" x="132" y="-47.23" font-family="DejaVu Sans" font-size="14.00">plik: clothing_shop_backup_*.dump</text>
</g>
<!-- backup&#45;&gt;wezel1 -->
<g id="edge5" class="edge">
<title>backup&#45;&gt;wezel1</title>
<path fill="none" stroke="#475569" stroke-width="1.3" stroke-dasharray="5,2" d="M264.02,-70.71C334.8,-73.43 423.7,-77.06 503,-80.93 511.06,-81.32 519.42,-81.76 527.81,-82.2"/>
<polygon fill="#475569" stroke="#475569" stroke-width="1.3" points="527.72,-85 535.86,-82.64 528.02,-79.41 527.72,-85"/>
<text text-anchor="middle" x="400" y="-99.73" font-family="DejaVu Sans" font-size="14.00">restore testowy</text>
<text text-anchor="middle" x="400" y="-84.73" font-family="DejaVu Sans" font-size="14.00">do clothing_shop_restore_test</text>
</g>
<!-- wezel1&#45;&gt;backup -->
<g id="edge4" class="edge">
<title>wezel1&#45;&gt;backup</title>
<path fill="none" stroke="#475569" stroke-width="1.3" d="M566.75,-44.27C547.43,-32.35 525.2,-21.04 503,-14.93 414.73,9.38 387.52,-1.18 297,-14.93 270.15,-19.01 241.65,-26.64 216.07,-34.78"/>
<polygon fill="#475569" stroke="#475569" stroke-width="1.3" points="214.97,-32.19 208.23,-37.32 216.7,-37.52 214.97,-32.19"/>
<text text-anchor="middle" x="400" y="-18.73" font-family="DejaVu Sans" font-size="14.00">backup</text>
</g>
<!-- wezel1&#45;&gt;wezel2 -->
<g id="edge3" class="edge">
<title>wezel1&#45;&gt;wezel2</title>
<path fill="none" stroke="#15803d" stroke-width="1.3" d="M717.06,-87.93C776.69,-87.93 855.83,-87.93 921.42,-87.93"/>
<polygon fill="#15803d" stroke="#15803d" stroke-width="1.3" points="921.76,-90.73 929.76,-87.93 921.76,-85.13 921.76,-90.73"/>
<text text-anchor="middle" x="823.5" y="-106.73" font-family="DejaVu Sans" font-size="14.00">streaming replication</text>
<text text-anchor="middle" x="823.5" y="-91.73" font-family="DejaVu Sans" font-size="14.00">repmgr</text>
</g>
</g>
</svg>
